<svg version="1.1" viewBox="0.0 0.0 960.0 720.0" fill="none" stroke="none" stroke-linecap="square" stroke-miterlimit="10" xmlns:xlink="http://www.w3.org/1999/xlink" xmlns="http://www.w3.org/2000/svg"><clipPath id="p.0"><path d="m0 0l960.0 0l0 720.0l-960.0 0l0 -720.0z" clip-rule="nonzero"/></clipPath><g clip-path="url(#p.0)"><path fill="#000000" fill-opacity="0.0" d="m0 0l960.0 0l0 720.0l-960.0 0z" fill-rule="evenodd"/><path fill="#000000" fill-opacity="0.0" d="m476.24423 580.70276l-28.284027 0l0 0c-17.065643 0 -33.432373 -6.779358 -45.499603 -18.846619c-12.067261 -12.0672 -18.846558 -28.433899 -18.846558 -45.499573l0 -118.04755c0 -7.019043E-4 5.79834E-4 -0.0013122559 0.0012817383 -0.0013122559l156.97507 0.0013122559l0 0c7.324219E-4 0 0.0013427734 5.79834E-4 0.0013427734 0.0013122559l-0.0013427734 118.046234l0 0c0 35.537415 -28.808746 64.34619 -64.34616 64.34619z" fill-rule="evenodd"/><path stroke="#ffffff" stroke-width="24.0" stroke-linejoin="round" stroke-linecap="butt" d="m476.24423 580.70276l-28.284027 0l0 0c-17.065643 0 -33.432373 -6.779358 -45.499603 -18.846619c-12.067261 -12.0672 -18.846558 -28.433899 -18.846558 -45.499573l0 -118.04755c0 -7.019043E-4 5.79834E-4 -0.0013122559 0.0012817383 -0.0013122559l156.97507 0.0013122559l0 0c7.324219E-4 0 0.0013427734 5.79834E-4 0.0013427734 0.0013122559l-0.0013427734 118.046234l0 0c0 35.537415 -28.808746 64.34619 -64.34616 64.34619z" fill-rule="evenodd"/><path fill="#000000" fill-opacity="0.0" d="m471.2974 385.5986c4.9490967 -21.91748 8.130798 -99.33621 29.69455 -131.50493c21.56372 -32.168747 83.07324 -51.256226 99.68787 -61.50746" fill-rule="evenodd"/><path stroke="#ffffff" stroke-width="8.0" stroke-linejoin="round" stroke-linecap="butt" d="m471.2974 385.5986c4.9490967 -21.91748 8.130798 -99.33621 29.69455 -131.50493c21.56372 -32.168747 83.07324 -51.256226 99.68787 -61.50746" fill-rule="evenodd"/><path fill="#000000" fill-opacity="0.0" d="m471.29922 379.2338c-6.716461 -13.786682 -20.856232 -66.45859 -40.29883 -82.720184c-19.442596 -16.261597 -63.630646 -12.37442 -76.35678 -14.849335" fill-rule="evenodd"/><path stroke="#ffffff" stroke-width="8.0" stroke-linejoin="round" stroke-linecap="butt" d="m471.29922 379.2338c-6.716461 -13.786682 -20.856232 -66.45859 -40.29883 -82.720184c-19.442596 -16.261597 -63.630646 -12.37442 -76.35678 -14.849335" fill-rule="evenodd"/><path fill="#000000" fill-opacity="0.0" d="m420.39728 307.11884c-10.60498 1.4143066 -44.894165 11.667603 -63.629944 8.485901c-18.73581 -3.1817017 -35.704895 -12.375122 -48.78476 -27.576141c-13.079895 -15.201019 -24.745453 -53.024963 -29.69455 -63.62996" fill-rule="evenodd"/><path stroke="#ffffff" stroke-width="8.0" stroke-linejoin="round" stroke-linecap="butt" d="m420.39728 307.11884c-10.60498 1.4143066 -44.894165 11.667603 -63.629944 8.485901c-18.73581 -3.1817017 -35.704895 -12.375122 -48.78476 -27.576141c-13.079895 -15.201019 -24.745453 -53.024963 -29.69455 -63.62996" fill-rule="evenodd"/><path fill="#000000" fill-opacity="0.0" d="m435.24658 279.5483c-2.1211243 -6.009674 -3.8892212 -25.80603 -12.726807 -36.057953c-8.837616 -10.251923 -25.805328 -21.918869 -40.29886 -25.453629c-14.4935 -3.5347748 -29.693848 3.1844482 -46.66223 4.2450104c-16.968414 1.0605621 -45.956818 1.7653351 -55.148163 2.118393" fill-rule="evenodd"/><path stroke="#ffffff" stroke-width="8.0" stroke-linejoin="round" stroke-linecap="butt" d="m435.24658 279.5483c-2.1211243 -6.009674 -3.8892212 -25.80603 -12.726807 -36.057953c-8.837616 -10.251923 -25.805328 -21.918869 -40.29886 -25.453629c-14.4935 -3.5347748 -29.693848 3.1844482 -46.66223 4.2450104c-16.968414 1.0605621 -45.956818 1.7653351 -55.148163 2.118393" fill-rule="evenodd"/><path fill="#000000" fill-opacity="0.0" d="m503.11395 235.00616c3.8885193 -13.432938 8.130096 -64.69054 23.331116 -80.59769c15.200989 -15.907135 42.77649 -14.8452 67.875 -14.8452c25.09851 0 68.93005 12.371002 82.716064 14.8452" fill-rule="evenodd"/><path stroke="#ffffff" stroke-width="8.0" stroke-linejoin="round" stroke-linecap="butt" d="m503.11395 235.00616c3.8885193 -13.432938 8.130096 -64.69054 23.331116 -80.59769c15.200989 -15.907135 42.77649 -14.8452 67.875 -14.8452c25.09851 0 68.93005 12.371002 82.716064 14.8452" fill-rule="evenodd"/><path fill="#000000" fill-opacity="0.0" d="m524.3222 256.2168c13.433655 1.4136353 59.744873 11.309753 80.60181 8.481812c20.856934 -2.827942 34.288513 -13.783951 44.539734 -25.449524c10.251282 -11.665558 10.958069 -30.049652 16.967712 -44.543854c6.0097046 -14.494202 15.908508 -35.35112 19.090271 -42.42134" fill-rule="evenodd"/><path stroke="#ffffff" stroke-width="8.0" stroke-linejoin="round" stroke-linecap="butt" d="m524.3222 256.2168c13.433655 1.4136353 59.744873 11.309753 80.60181 8.481812c20.856934 -2.827942 34.288513 -13.783951 44.539734 -25.449524c10.251282 -11.665558 10.958069 -30.049652 16.967712 -44.543854c6.0097046 -14.494202 15.908508 -35.35112 19.090271 -42.42134" fill-rule="evenodd"/><path fill="#ffffff" d="m273.39053 218.56361l14.992126 0l0 8.503937l-14.992126 0z" fill-rule="evenodd"/><path stroke="#ffffff" stroke-width="1.0" stroke-linejoin="round" stroke-linecap="butt" d="m273.39053 218.56361l14.992126 0l0 8.503937l-14.992126 0z" fill-rule="evenodd"/><path fill="#ffffff" d="m672.6238 147.90779l13.984253 5.480316l-3.118103 7.9055176l-13.984253 -5.480316z" fill-rule="evenodd"/><path stroke="#ffffff" stroke-width="1.0" stroke-linejoin="round" stroke-linecap="butt" d="m672.6238 147.90779l13.984253 5.480316l-3.118103 7.9055176l-13.984253 -5.480316z" fill-rule="evenodd"/><path fill="#ffffff" d="m519.9251 256.44742l0 0c0 -3.5311432 2.8625488 -6.393692 6.3936768 -6.393692l0 0c1.6957397 0 3.3219604 0.6736145 4.520996 1.8726654c1.1990967 1.1990509 1.8726807 2.8253174 1.8726807 4.5210266l0 0c0 3.5311584 -2.8625488 6.3937073 -6.3936768 6.3937073l0 0c-3.531128 0 -6.3936768 -2.8625488 -6.3936768 -6.3937073z" fill-rule="evenodd"/><path stroke="#ffffff" stroke-width="1.0" stroke-linejoin="round" stroke-linecap="butt" d="m519.9251 256.44742l0 0c0 -3.5311432 2.8625488 -6.393692 6.3936768 -6.393692l0 0c1.6957397 0 3.3219604 0.6736145 4.520996 1.8726654c1.1990967 1.1990509 1.8726807 2.8253174 1.8726807 4.5210266l0 0c0 3.5311584 -2.8625488 6.3937073 -6.3936768 6.3937073l0 0c-3.531128 0 -6.3936768 -2.8625488 -6.3936768 -6.3937073z" fill-rule="evenodd"/><path fill="#ffffff" d="m497.08792 233.44572l0 0c0 -3.5311432 2.8625488 -6.393692 6.3937073 -6.393692l0 0c1.6957092 0 3.3219604 0.6736145 4.5210266 1.8726654c1.1990356 1.1990509 1.8726807 2.8253174 1.8726807 4.5210266l0 0c0 3.5311432 -2.8625793 6.3937073 -6.3937073 6.3937073l0 0c-3.5311584 0 -6.3937073 -2.862564 -6.3937073 -6.3937073z" fill-rule="evenodd"/><path stroke="#ffffff" stroke-width="1.0" stroke-linejoin="round" stroke-linecap="butt" d="m497.08792 233.44572l0 0c0 -3.5311432 2.8625488 -6.393692 6.3937073 -6.393692l0 0c1.6957092 0 3.3219604 0.6736145 4.5210266 1.8726654c1.1990356 1.1990509 1.8726807 2.8253174 1.8726807 4.5210266l0 0c0 3.5311432 -2.8625793 6.3937073 -6.3937073 6.3937073l0 0c-3.5311584 0 -6.3937073 -2.862564 -6.3937073 -6.3937073z" fill-rule="evenodd"/><path fill="#ffffff" d="m593.6358 192.84639l0 0c0 -3.5311432 2.8625488 -6.393692 6.3936768 -6.393692l0 0c1.6957397 0 3.3220215 0.6736145 4.521057 1.8726654c1.1990356 1.1990509 1.8726807 2.8253174 1.8726807 4.5210266l0 0c0 3.5311432 -2.8625488 6.3937073 -6.393738 6.3937073l0 0c-3.531128 0 -6.3936768 -2.862564 -6.3936768 -6.3937073z" fill-rule="evenodd"/><path stroke="#ffffff" stroke-width="1.0" stroke-linejoin="round" stroke-linecap="butt" d="m593.6358 192.84639l0 0c0 -3.5311432 2.8625488 -6.393692 6.3936768 -6.393692l0 0c1.6957397 0 3.3220215 0.6736145 4.521057 1.8726654c1.1990356 1.1990509 1.8726807 2.8253174 1.8726807 4.5210266l0 0c0 3.5311432 -2.8625488 6.3937073 -6.393738 6.3937073l0 0c-3.531128 0 -6.3936768 -2.862564 -6.3936768 -6.3937073z" fill-rule="evenodd"/><path fill="#ffffff" d="m428.8356 278.9999l0 0c0 -3.5311584 2.8625488 -6.3937073 6.3936768 -6.3937073l0 0c1.6957092 0 3.321991 0.6736145 4.5210266 1.8726807c1.1990662 1.1990356 1.8726807 2.8253174 1.8726807 4.5210266l0 0c0 3.531128 -2.8625488 6.3937073 -6.3937073 6.3937073l0 0c-3.531128 0 -6.3936768 -2.8625793 -6.3936768 -6.3937073z" fill-rule="evenodd"/><path stroke="#ffffff" stroke-width="1.0" stroke-linejoin="round" stroke-linecap="butt" d="m428.8356 278.9999l0 0c0 -3.5311584 2.8625488 -6.3937073 6.3936768 -6.3937073l0 0c1.6957092 0 3.321991 0.6736145 4.5210266 1.8726807c1.1990662 1.1990356 1.8726807 2.8253174 1.8726807 4.5210266l0 0c0 3.531128 -2.8625488 6.3937073 -6.3937073 6.3937073l0 0c-3.531128 0 -6.3936768 -2.8625793 -6.3936768 -6.3937073z" fill-rule="evenodd"/><path fill="#ffffff" d="m413.11005 306.98398l0 0c0 -3.531128 2.8625793 -6.3936768 6.3937073 -6.3936768l0 0c1.6957092 0 3.321991 0.6736145 4.5210266 1.8726501c1.1990662 1.1990662 1.8726807 2.8253174 1.8726807 4.5210266l0 0c0 3.5311584 -2.8625488 6.3937073 -6.3937073 6.3937073l0 0c-3.531128 0 -6.3937073 -2.8625488 -6.3937073 -6.3937073z" fill-rule="evenodd"/><path stroke="#ffffff" stroke-width="1.0" stroke-linejoin="round" stroke-linecap="butt" d="m413.11005 306.98398l0 0c0 -3.531128 2.8625793 -6.3936768 6.3937073 -6.3936768l0 0c1.6957092 0 3.321991 0.6736145 4.5210266 1.8726501c1.1990662 1.1990662 1.8726807 2.8253174 1.8726807 4.5210266l0 0c0 3.5311584 -2.8625488 6.3937073 -6.3937073 6.3937073l0 0c-3.531128 0 -6.3937073 -2.8625488 -6.3937073 -6.3937073z" fill-rule="evenodd"/><path fill="#ffffff" d="m347.49054 281.04422l0 0c0 -3.531128 2.8625793 -6.3937073 6.3937073 -6.3937073l0 0c1.6957092 0 3.321991 0.6736145 4.5210266 1.8726807c1.1990662 1.1990356 1.8726807 2.8253174 1.8726807 4.5210266l0 0c0 3.5311584 -2.8625488 6.3937073 -6.3937073 6.3937073l0 0c-3.531128 0 -6.3937073 -2.8625488 -6.3937073 -6.3937073z" fill-rule="evenodd"/><path stroke="#ffffff" stroke-width="1.0" stroke-linejoin="round" stroke-linecap="butt" d="m347.49054 281.04422l0 0c0 -3.531128 2.8625793 -6.3937073 6.3937073 -6.3937073l0 0c1.6957092 0 3.321991 0.6736145 4.5210266 1.8726807c1.1990662 1.1990356 1.8726807 2.8253174 1.8726807 4.5210266l0 0c0 3.5311584 -2.8625488 6.3937073 -6.3937073 6.3937073l0 0c-3.531128 0 -6.3937073 -2.8625488 -6.3937073 -6.3937073z" fill-rule="evenodd"/></g></svg>