<svg version="1.1" viewBox="0.0 0.0 960.0 720.0" fill="none" stroke="none" stroke-linecap="square" stroke-miterlimit="10" xmlns:xlink="http://www.w3.org/1999/xlink" xmlns="http://www.w3.org/2000/svg"><clipPath id="p.0"><path d="m0 0l960.0 0l0 720.0l-960.0 0l0 -720.0z" clip-rule="nonzero"/></clipPath><g clip-path="url(#p.0)"><path fill="#000000" fill-opacity="0.0" d="m0 0l960.0 0l0 720.0l-960.0 0z" fill-rule="evenodd"/><path fill="#000000" fill-opacity="0.0" d="m65.75853 678.4829l61.54986 -544.88184l512.3018 0l61.549866 544.88184z" fill-rule="evenodd"/><path stroke="#000000" stroke-width="24.0" stroke-linejoin="round" stroke-linecap="butt" d="m65.75853 678.4829l61.54986 -544.88184l512.3018 0l61.549866 544.88184z" fill-rule="evenodd"/><path fill="#000000" fill-opacity="0.0" d="m380.90686 25.95013l5.1023865 241.29132" fill-rule="evenodd"/><path stroke="#000000" stroke-width="24.0" stroke-linejoin="round" stroke-linecap="butt" d="m380.90686 25.95013l5.1023865 241.29132" fill-rule="evenodd"/><path fill="#000000" fill-opacity="0.0" d="m605.9895 278.90027l172.78741 -113.6693" fill-rule="evenodd"/><path stroke="#000000" stroke-width="24.0" stroke-linejoin="round" stroke-linecap="butt" d="m605.9895 278.90027l172.78741 -113.6693" fill-rule="evenodd"/><path fill="#000000" fill-opacity="0.0" d="m768.5066 174.31496l59.118103 68.220474" fill-rule="evenodd"/><path stroke="#000000" stroke-width="24.0" stroke-linejoin="round" stroke-linecap="butt" d="m768.5066 174.31496l59.118103 68.220474" fill-rule="evenodd"/><path fill="#000000" fill-opacity="0.0" d="m630.93176 478.2362l207.65356 -236.47243" fill-rule="evenodd"/><path stroke="#000000" stroke-width="24.0" stroke-linejoin="round" stroke-linecap="butt" d="m630.93176 478.2362l207.65356 -236.47243" fill-rule="evenodd"/><path fill="#000000" d="m759.09186 171.5958l0 0c0 -5.4358673 4.4066772 -9.842514 9.842529 -9.842514l0 0c2.6104126 0 5.1138916 1.036972 6.959717 2.8828125c1.8458252 1.8458252 2.8828125 4.349304 2.8828125 6.9597015l0 0c0 5.4358826 -4.4066772 9.842529 -9.842529 9.842529l0 0c-5.435852 0 -9.842529 -4.4066467 -9.842529 -9.842529z" fill-rule="evenodd"/><path stroke="#000000" stroke-width="1.0" stroke-linejoin="round" stroke-linecap="butt" d="m759.09186 171.5958l0 0c0 -5.4358673 4.4066772 -9.842514 9.842529 -9.842514l0 0c2.6104126 0 5.1138916 1.036972 6.959717 2.8828125c1.8458252 1.8458252 2.8828125 4.349304 2.8828125 6.9597015l0 0c0 5.4358826 -4.4066772 9.842529 -9.842529 9.842529l0 0c-5.435852 0 -9.842529 -4.4066467 -9.842529 -9.842529z" fill-rule="evenodd"/><path fill="#d9d9d9" d="m819.31757 241.75066l0 0c0 -5.4358673 4.4066772 -9.842514 9.842529 -9.842514l0 0c2.6104126 0 5.1138916 1.036972 6.959717 2.8827972c1.8458252 1.8458405 2.8828125 4.3493195 2.8828125 6.959717l0 0c0 5.4358673 -4.406616 9.842514 -9.842529 9.842514l0 0c-5.435852 0 -9.842529 -4.4066467 -9.842529 -9.842514z" fill-rule="evenodd"/><path stroke="#000000" stroke-width="1.0" stroke-linejoin="round" stroke-linecap="butt" d="m819.31757 241.75066l0 0c0 -5.4358673 4.4066772 -9.842514 9.842529 -9.842514l0 0c2.6104126 0 5.1138916 1.036972 6.959717 2.8827972c1.8458252 1.8458405 2.8828125 4.3493195 2.8828125 6.959717l0 0c0 5.4358673 -4.406616 9.842514 -9.842529 9.842514l0 0c-5.435852 0 -9.842529 -4.4066467 -9.842529 -9.842514z" fill-rule="evenodd"/><path fill="#000000" fill-opacity="0.0" d="m88.64042 658.84515l57.11329 -505.60632l475.4112 0l57.11328 505.60632z" fill-rule="evenodd"/><path stroke="#000000" stroke-width="24.0" stroke-linejoin="round" stroke-linecap="butt" d="m88.64042 658.84515l57.11329 -505.60632l475.4112 0l57.11328 505.60632z" fill-rule="evenodd"/><path fill="#000000" fill-opacity="0.0" d="m104.81469 644.9712l53.978874 -477.85828l449.33356 0l53.97888 477.85828z" fill-rule="evenodd"/><path stroke="#000000" stroke-width="24.0" stroke-linejoin="round" stroke-linecap="butt" d="m104.81469 644.9712l53.978874 -477.85828l449.33356 0l53.97888 477.85828z" fill-rule="evenodd"/><path fill="#000000" fill-opacity="0.0" d="m396.14767 25.95013l5.102356 241.29132" fill-rule="evenodd"/><path stroke="#000000" stroke-width="24.0" stroke-linejoin="round" stroke-linecap="butt" d="m396.14767 25.95013l5.102356 241.29132" fill-rule="evenodd"/><path fill="#000000" fill-opacity="0.0" d="m411.39108 25.95013l5.102356 241.29132" fill-rule="evenodd"/><path stroke="#000000" stroke-width="24.0" stroke-linejoin="round" stroke-linecap="butt" d="m411.39108 25.95013l5.102356 241.29132" fill-rule="evenodd"/><path fill="#000000" fill-opacity="0.0" d="m605.9895 298.5853l172.78741 -113.66928" fill-rule="evenodd"/><path stroke="#000000" stroke-width="24.0" stroke-linejoin="round" stroke-linecap="butt" d="m605.9895 298.5853l172.78741 -113.66928" fill-rule="evenodd"/><path fill="#000000" fill-opacity="0.0" d="m605.9895 326.73752l172.78741 -113.66928" fill-rule="evenodd"/><path stroke="#000000" stroke-width="24.0" stroke-linejoin="round" stroke-linecap="butt" d="m605.9895 326.73752l172.78741 -113.66928" fill-rule="evenodd"/><path fill="#000000" fill-opacity="0.0" d="m768.5066 186.99475l70.078735 70.14172" fill-rule="evenodd"/><path stroke="#000000" stroke-width="24.0" stroke-linejoin="round" stroke-linecap="butt" d="m768.5066 186.99475l70.078735 70.14172" fill-rule="evenodd"/><path fill="#000000" fill-opacity="0.0" d="m745.14435 192.05774l74.17322 75.18109" fill-rule="evenodd"/><path stroke="#000000" stroke-width="24.0" stroke-linejoin="round" stroke-linecap="butt" d="m745.14435 192.05774l74.17322 75.18109" fill-rule="evenodd"/><path fill="#000000" fill-opacity="0.0" d="m627.874 486.14172l199.74805 -243.62204" fill-rule="evenodd"/><path stroke="#000000" stroke-width="24.0" stroke-linejoin="round" stroke-linecap="butt" d="m627.874 486.14172l199.74805 -243.62204" fill-rule="evenodd"/><path fill="#000000" fill-opacity="0.0" d="m635.29395 445.58792l169.57483 -203.81102" fill-rule="evenodd"/><path stroke="#000000" stroke-width="24.0" stroke-linejoin="round" stroke-linecap="butt" d="m635.29395 445.58792l169.57483 -203.81102" fill-rule="evenodd"/><path fill="#000000" fill-opacity="0.0" d="m365.66666 25.95013l5.1023865 241.29132" fill-rule="evenodd"/><path stroke="#000000" stroke-width="24.0" stroke-linejoin="round" stroke-linecap="butt" d="m365.66666 25.95013l5.1023865 241.29132" fill-rule="evenodd"/><path fill="#000000" fill-opacity="0.0" d="m426.63254 25.95013l5.102356 241.29132" fill-rule="evenodd"/><path stroke="#000000" stroke-width="24.0" stroke-linejoin="round" stroke-linecap="butt" d="m426.63254 25.95013l5.102356 241.29132" fill-rule="evenodd"/><path fill="#000000" fill-opacity="0.0" d="m125.26643 650.3517l52.96846 -468.91336l440.92923 0l52.968445 468.91336z" fill-rule="evenodd"/><path stroke="#000000" stroke-width="24.0" stroke-linejoin="round" stroke-linecap="butt" d="m125.26643 650.3517l52.96846 -468.91336l440.92923 0l52.968445 468.91336z" fill-rule="evenodd"/><path fill="#000000" fill-opacity="0.0" d="m117.648254 633.96387l51.491974 -455.8425l428.6381 0l51.492004 455.8425z" fill-rule="evenodd"/><path stroke="#000000" stroke-width="24.0" stroke-linejoin="round" stroke-linecap="butt" d="m117.648254 633.96387l51.491974 -455.8425l428.6381 0l51.492004 455.8425z" fill-rule="evenodd"/><path fill="#000000" fill-opacity="0.0" d="m143.94511 634.336l49.35019 -436.8819l410.81146 0l49.35016 436.8819z" fill-rule="evenodd"/><path stroke="#000000" stroke-width="24.0" stroke-linejoin="round" stroke-linecap="butt" d="m143.94511 634.336l49.35019 -436.8819l410.81146 0l49.35016 436.8819z" fill-rule="evenodd"/><path fill="#000000" fill-opacity="0.0" d="m643.46454 490.53543l201.7638 -242.17323" fill-rule="evenodd"/><path stroke="#000000" stroke-width="24.0" stroke-linejoin="round" stroke-linecap="butt" d="m643.46454 490.53543l201.7638 -242.17323" fill-rule="evenodd"/><path fill="#000000" fill-opacity="0.0" d="m616.53546 253.70079l151.9685 -102.110245" fill-rule="evenodd"/><path stroke="#000000" stroke-width="24.0" stroke-linejoin="round" stroke-linecap="butt" d="m616.53546 253.70079l151.9685 -102.110245" fill-rule="evenodd"/><path fill="#000000" fill-opacity="0.0" d="m659.46454 506.53543l201.7638 -242.17322" fill-rule="evenodd"/><path stroke="#000000" stroke-width="24.0" stroke-linejoin="round" stroke-linecap="butt" d="m659.46454 506.53543l201.7638 -242.17322" fill-rule="evenodd"/></g></svg>