<svg version="1.1" viewBox="0.0 0.0 960.0 720.0" fill="none" stroke="none" stroke-linecap="square" stroke-miterlimit="10" xmlns:xlink="http://www.w3.org/1999/xlink" xmlns="http://www.w3.org/2000/svg"><clipPath id="p.0"><path d="m0 0l960.0 0l0 720.0l-960.0 0l0 -720.0z" clip-rule="nonzero"/></clipPath><g clip-path="url(#p.0)"><path fill="#000000" fill-opacity="0.0" d="m0 0l960.0 0l0 720.0l-960.0 0z" fill-rule="evenodd"/><path fill="#000000" fill-opacity="0.0" d="m106.10761 659.36743l51.538216 -456.25195l428.95508 0l51.538208 456.25195z" fill-rule="evenodd"/><path stroke="#d9d9d9" stroke-width="24.0" stroke-linejoin="round" stroke-linecap="butt" d="m106.10761 659.36743l51.538216 -456.25195l428.95508 0l51.538208 456.25195z" fill-rule="evenodd"/><path fill="#000000" fill-opacity="0.0" d="m370.61154 98.52756l3.0236206 197.03937" fill-rule="evenodd"/><path stroke="#d9d9d9" stroke-width="24.0" stroke-linejoin="round" stroke-linecap="butt" d="m370.61154 98.52756l3.0236206 197.03937" fill-rule="evenodd"/><path fill="#000000" fill-opacity="0.0" d="m597.22046 286.48294l172.78741 -113.6693" fill-rule="evenodd"/><path stroke="#d9d9d9" stroke-width="24.0" stroke-linejoin="round" stroke-linecap="butt" d="m597.22046 286.48294l172.78741 -113.6693" fill-rule="evenodd"/><path fill="#000000" fill-opacity="0.0" d="m768.5066 174.31496l59.118103 68.220474" fill-rule="evenodd"/><path stroke="#d9d9d9" stroke-width="24.0" stroke-linejoin="round" stroke-linecap="butt" d="m768.5066 174.31496l59.118103 68.220474" fill-rule="evenodd"/><path fill="#000000" fill-opacity="0.0" d="m619.958 477.47244l207.65356 -236.47244" fill-rule="evenodd"/><path stroke="#d9d9d9" stroke-width="24.0" stroke-linejoin="round" stroke-linecap="butt" d="m619.958 477.47244l207.65356 -236.47244" fill-rule="evenodd"/><path fill="#d9d9d9" d="m759.09186 171.5958l0 0c0 -5.4358673 4.4066772 -9.842514 9.842529 -9.842514l0 0c2.6104126 0 5.1138916 1.036972 6.959717 2.8828125c1.8458252 1.8458252 2.8828125 4.349304 2.8828125 6.9597015l0 0c0 5.4358826 -4.4066772 9.842529 -9.842529 9.842529l0 0c-5.435852 0 -9.842529 -4.4066467 -9.842529 -9.842529z" fill-rule="evenodd"/><path stroke="#d9d9d9" stroke-width="1.0" stroke-linejoin="round" stroke-linecap="butt" d="m759.09186 171.5958l0 0c0 -5.4358673 4.4066772 -9.842514 9.842529 -9.842514l0 0c2.6104126 0 5.1138916 1.036972 6.959717 2.8828125c1.8458252 1.8458252 2.8828125 4.349304 2.8828125 6.9597015l0 0c0 5.4358826 -4.4066772 9.842529 -9.842529 9.842529l0 0c-5.435852 0 -9.842529 -4.4066467 -9.842529 -9.842529z" fill-rule="evenodd"/><path fill="#d9d9d9" d="m819.31757 241.75066l0 0c0 -5.4358673 4.4066772 -9.842514 9.842529 -9.842514l0 0c2.6104126 0 5.1138916 1.036972 6.959717 2.8827972c1.8458252 1.8458405 2.8828125 4.3493195 2.8828125 6.959717l0 0c0 5.4358673 -4.406616 9.842514 -9.842529 9.842514l0 0c-5.435852 0 -9.842529 -4.4066467 -9.842529 -9.842514z" fill-rule="evenodd"/><path stroke="#d9d9d9" stroke-width="1.0" stroke-linejoin="round" stroke-linecap="butt" d="m819.31757 241.75066l0 0c0 -5.4358673 4.4066772 -9.842514 9.842529 -9.842514l0 0c2.6104126 0 5.1138916 1.036972 6.959717 2.8827972c1.8458252 1.8458405 2.8828125 4.3493195 2.8828125 6.959717l0 0c0 5.4358673 -4.406616 9.842514 -9.842529 9.842514l0 0c-5.435852 0 -9.842529 -4.4066467 -9.842529 -9.842514z" fill-rule="evenodd"/></g></svg>